<?xml version="1.0" encoding="utf-8"?>
<!-- Generator: Adobe Illustrator 16.0.0, SVG Export Plug-In . SVG Version: 6.00 Build 0)  -->
<!DOCTYPE svg PUBLIC "-//W3C//DTD SVG 1.1//EN" "http://www.w3.org/Graphics/SVG/1.1/DTD/svg11.dtd">
<svg version="1.1" xmlns="http://www.w3.org/2000/svg" xmlns:xlink="http://www.w3.org/1999/xlink" x="0px" y="0px" width="108px"
	 height="111px" viewBox="0 0 108 111" enable-background="new 0 0 108 111" xml:space="preserve">
<g id="Calque_1">
	<g>
		<path fill="#111628" d="M24.623,45.712c-0.63,0-1.117,0.236-1.463,0.71c-0.345,0.474-0.519,1.133-0.519,1.979
			c0,1.759,0.66,2.64,1.981,2.64c0.554,0,1.226-0.139,2.013-0.416v1.403c-0.646,0.27-1.371,0.405-2.17,0.405
			c-1.147,0-2.025-0.349-2.633-1.045c-0.609-0.696-0.913-1.695-0.913-2.998c0-0.82,0.149-1.539,0.448-2.156s0.728-1.091,1.287-1.42
			c0.56-0.33,1.216-0.494,1.968-0.494c0.767,0,1.536,0.186,2.31,0.556l-0.539,1.36c-0.295-0.141-0.592-0.263-0.891-0.367
			C25.204,45.765,24.911,45.712,24.623,45.712z"/>
		<path fill="#111628" d="M33.669,49.296c0,0.982-0.258,1.751-0.777,2.305c-0.518,0.555-1.239,0.832-2.164,0.832
			c-0.579,0-1.09-0.127-1.533-0.381c-0.442-0.254-0.782-0.618-1.02-1.094c-0.238-0.475-0.356-1.028-0.356-1.662
			c0-0.986,0.257-1.752,0.772-2.299c0.514-0.547,1.237-0.82,2.17-0.82c0.578,0,1.09,0.125,1.532,0.377s0.782,0.614,1.021,1.085
			C33.551,48.11,33.669,48.663,33.669,49.296z M29.497,49.296c0,0.598,0.098,1.049,0.294,1.355c0.196,0.306,0.516,0.458,0.958,0.458
			c0.439,0,0.755-0.151,0.947-0.456c0.193-0.304,0.289-0.756,0.289-1.357c0-0.598-0.098-1.045-0.291-1.344
			c-0.195-0.299-0.514-0.448-0.955-0.448c-0.439,0-0.756,0.148-0.951,0.445C29.595,48.246,29.497,48.695,29.497,49.296z"/>
		<path fill="#111628" d="M40.433,52.324h-1.646V48.8c0-0.436-0.072-0.762-0.219-0.98c-0.145-0.217-0.375-0.326-0.688-0.326
			c-0.422,0-0.727,0.154-0.918,0.465c-0.19,0.309-0.286,0.818-0.286,1.527v2.839H35.03V46.29h1.257l0.222,0.771h0.092
			c0.162-0.277,0.396-0.494,0.701-0.65c0.307-0.156,0.657-0.234,1.053-0.234c0.903,0,1.516,0.295,1.836,0.885h0.145
			c0.162-0.281,0.4-0.498,0.716-0.653c0.315-0.154,0.671-0.231,1.065-0.231c0.685,0,1.201,0.175,1.553,0.525
			c0.351,0.352,0.525,0.914,0.525,1.688v3.935h-1.65V48.8c0-0.436-0.074-0.762-0.219-0.98c-0.146-0.217-0.375-0.326-0.688-0.326
			c-0.403,0-0.704,0.145-0.904,0.432c-0.2,0.288-0.3,0.745-0.3,1.371V52.324z"/>
		<path fill="#111628" d="M51.288,52.324h-1.646V48.8c0-0.436-0.073-0.762-0.219-0.98c-0.146-0.217-0.375-0.326-0.688-0.326
			c-0.422,0-0.728,0.154-0.918,0.465c-0.191,0.309-0.287,0.818-0.287,1.527v2.839h-1.646V46.29h1.257l0.223,0.771h0.092
			c0.161-0.277,0.395-0.494,0.701-0.65c0.306-0.156,0.656-0.234,1.053-0.234c0.902,0,1.515,0.295,1.835,0.885h0.146
			c0.162-0.281,0.4-0.498,0.715-0.653c0.315-0.154,0.671-0.231,1.066-0.231c0.684,0,1.201,0.175,1.553,0.525
			c0.35,0.352,0.525,0.914,0.525,1.688v3.935h-1.651V48.8c0-0.436-0.073-0.762-0.219-0.98c-0.146-0.217-0.375-0.326-0.688-0.326
			c-0.402,0-0.704,0.145-0.904,0.432c-0.199,0.288-0.299,0.745-0.299,1.371V52.324z"/>
		<path fill="#111628" d="M56.669,44.729c0-0.536,0.299-0.805,0.896-0.805s0.896,0.269,0.896,0.805c0,0.256-0.075,0.454-0.225,0.597
			c-0.149,0.142-0.373,0.213-0.672,0.213C56.968,45.539,56.669,45.27,56.669,44.729z M58.386,52.324h-1.646V46.29h1.646V52.324z"/>
		<path fill="#111628" d="M64.323,50.532c0,0.619-0.215,1.09-0.645,1.414s-1.074,0.486-1.93,0.486c-0.439,0-0.813-0.03-1.123-0.09
			c-0.31-0.059-0.6-0.146-0.869-0.262v-1.359c0.306,0.144,0.65,0.264,1.033,0.361c0.384,0.097,0.721,0.146,1.013,0.146
			c0.597,0,0.896-0.173,0.896-0.519c0-0.129-0.039-0.234-0.118-0.315s-0.216-0.173-0.41-0.275s-0.454-0.222-0.777-0.358
			c-0.464-0.195-0.806-0.375-1.022-0.54c-0.219-0.166-0.377-0.355-0.476-0.569c-0.099-0.215-0.148-0.479-0.148-0.791
			c0-0.536,0.208-0.951,0.624-1.244c0.415-0.293,1.004-0.439,1.768-0.439c0.727,0,1.434,0.158,2.121,0.475l-0.496,1.188
			c-0.303-0.13-0.586-0.236-0.848-0.318c-0.264-0.083-0.531-0.125-0.805-0.125c-0.486,0-0.729,0.132-0.729,0.395
			c0,0.147,0.078,0.275,0.234,0.383c0.156,0.108,0.5,0.269,1.028,0.48c0.472,0.191,0.817,0.369,1.036,0.535
			c0.22,0.165,0.382,0.355,0.486,0.572C64.271,49.977,64.323,50.233,64.323,50.532z"/>
		<path fill="#111628" d="M69.817,50.532c0,0.619-0.215,1.09-0.645,1.414s-1.073,0.486-1.93,0.486c-0.439,0-0.813-0.03-1.123-0.09
			c-0.309-0.059-0.599-0.146-0.869-0.262v-1.359c0.307,0.144,0.65,0.264,1.034,0.361c0.384,0.097,0.721,0.146,1.013,0.146
			c0.597,0,0.896-0.173,0.896-0.519c0-0.129-0.04-0.234-0.118-0.315c-0.08-0.081-0.217-0.173-0.41-0.275
			c-0.195-0.103-0.454-0.222-0.777-0.358c-0.465-0.195-0.806-0.375-1.023-0.54c-0.218-0.166-0.376-0.355-0.475-0.569
			c-0.1-0.215-0.148-0.479-0.148-0.791c0-0.536,0.207-0.951,0.623-1.244s1.005-0.439,1.768-0.439c0.727,0,1.434,0.158,2.121,0.475
			l-0.496,1.188c-0.303-0.13-0.585-0.236-0.848-0.318c-0.263-0.083-0.531-0.125-0.805-0.125c-0.485,0-0.729,0.132-0.729,0.395
			c0,0.147,0.078,0.275,0.234,0.383c0.157,0.108,0.5,0.269,1.029,0.48c0.471,0.191,0.816,0.369,1.036,0.535
			c0.22,0.165,0.382,0.355,0.485,0.572C69.766,49.977,69.817,50.233,69.817,50.532z"/>
		<path fill="#111628" d="M71.032,44.729c0-0.536,0.299-0.805,0.896-0.805s0.896,0.269,0.896,0.805c0,0.256-0.075,0.454-0.225,0.597
			c-0.149,0.142-0.373,0.213-0.672,0.213C71.331,45.539,71.032,45.27,71.032,44.729z M72.749,52.324h-1.646V46.29h1.646V52.324z"/>
		<path fill="#111628" d="M79.96,49.296c0,0.982-0.258,1.751-0.777,2.305c-0.518,0.555-1.239,0.832-2.164,0.832
			c-0.579,0-1.09-0.127-1.533-0.381c-0.442-0.254-0.782-0.618-1.02-1.094c-0.238-0.475-0.356-1.028-0.356-1.662
			c0-0.986,0.257-1.752,0.772-2.299c0.514-0.547,1.237-0.82,2.17-0.82c0.578,0,1.09,0.125,1.532,0.377s0.782,0.614,1.021,1.085
			C79.842,48.11,79.96,48.663,79.96,49.296z M75.788,49.296c0,0.598,0.098,1.049,0.294,1.355c0.196,0.306,0.516,0.458,0.958,0.458
			c0.439,0,0.755-0.151,0.947-0.456c0.193-0.304,0.289-0.756,0.289-1.357c0-0.598-0.098-1.045-0.291-1.344
			c-0.195-0.299-0.514-0.448-0.955-0.448c-0.439,0-0.756,0.148-0.951,0.445C75.886,48.246,75.788,48.695,75.788,49.296z"/>
		<path fill="#111628" d="M86.892,52.324h-1.646V48.8c0-0.436-0.078-0.762-0.232-0.98c-0.154-0.217-0.401-0.326-0.739-0.326
			c-0.461,0-0.794,0.154-0.999,0.462s-0.308,0.817-0.308,1.53v2.839h-1.646V46.29h1.257l0.222,0.771h0.092
			c0.184-0.291,0.436-0.512,0.758-0.661s0.688-0.224,1.099-0.224c0.702,0,1.234,0.189,1.599,0.568
			c0.363,0.38,0.545,0.928,0.545,1.645V52.324z"/>
		<path fill="#111628" d="M26.317,65.59h-4.545v-7.892h4.545v1.371h-2.871v1.732h2.672v1.371h-2.672v2.035h2.871V65.59z"/>
		<path fill="#111628" d="M32.11,65.59l-0.222-0.772h-0.087c-0.176,0.281-0.426,0.498-0.75,0.65
			c-0.324,0.153-0.693,0.229-1.106,0.229c-0.709,0-1.243-0.189-1.603-0.569c-0.36-0.379-0.541-0.926-0.541-1.638v-3.936h1.646v3.524
			c0,0.436,0.078,0.763,0.232,0.98s0.401,0.326,0.74,0.326c0.46,0,0.793-0.153,0.998-0.461c0.205-0.309,0.308-0.818,0.308-1.531
			v-2.839h1.646v6.035H32.11z"/>
		<path fill="#111628" d="M38.468,59.441c0.224,0,0.408,0.017,0.557,0.049l-0.125,1.544c-0.133-0.036-0.295-0.055-0.485-0.055
			c-0.525,0-0.935,0.136-1.228,0.405s-0.44,0.647-0.44,1.134v3.071h-1.646v-6.035h1.246l0.243,1.015h0.081
			c0.188-0.338,0.439-0.61,0.758-0.817S38.094,59.441,38.468,59.441z"/>
		<path fill="#111628" d="M45.604,62.562c0,0.982-0.26,1.751-0.777,2.305c-0.519,0.555-1.24,0.831-2.165,0.831
			c-0.579,0-1.091-0.126-1.532-0.38c-0.443-0.254-0.783-0.618-1.021-1.094c-0.237-0.475-0.356-1.029-0.356-1.662
			c0-0.986,0.258-1.752,0.771-2.3c0.516-0.547,1.238-0.82,2.17-0.82c0.58,0,1.091,0.126,1.533,0.378
			c0.443,0.252,0.783,0.613,1.021,1.085S45.604,61.929,45.604,62.562z M41.432,62.562c0,0.598,0.099,1.049,0.294,1.354
			c0.196,0.306,0.516,0.459,0.959,0.459c0.438,0,0.754-0.151,0.947-0.456c0.191-0.304,0.288-0.757,0.288-1.357
			c0-0.598-0.097-1.045-0.292-1.344c-0.193-0.299-0.512-0.448-0.955-0.448c-0.439,0-0.756,0.148-0.949,0.445
			C41.528,61.512,41.432,61.96,41.432,62.562z"/>
		<path fill="#111628" d="M50.278,65.697c-0.709,0-1.265-0.257-1.668-0.771h-0.086c0.057,0.504,0.086,0.795,0.086,0.874v2.445
			h-1.646v-8.69h1.339l0.232,0.783h0.075c0.385-0.598,0.955-0.896,1.711-0.896c0.713,0,1.271,0.275,1.674,0.826
			c0.402,0.551,0.604,1.315,0.604,2.294c0,0.645-0.095,1.203-0.284,1.679c-0.188,0.475-0.457,0.837-0.807,1.085
			C51.16,65.573,50.75,65.697,50.278,65.697z M49.792,60.759c-0.406,0-0.703,0.125-0.891,0.375c-0.187,0.25-0.283,0.663-0.291,1.238
			v0.179c0,0.647,0.096,1.112,0.289,1.393c0.192,0.28,0.498,0.421,0.915,0.421c0.737,0,1.106-0.608,1.106-1.824
			c0-0.594-0.091-1.039-0.273-1.336C50.466,60.907,50.181,60.759,49.792,60.759z"/>
		<path fill="#111628" d="M56.69,65.697c-0.971,0-1.73-0.268-2.277-0.804s-0.82-1.296-0.82-2.278c0-1.011,0.253-1.793,0.758-2.345
			c0.506-0.553,1.205-0.829,2.098-0.829c0.854,0,1.517,0.243,1.992,0.729c0.475,0.486,0.712,1.157,0.712,2.014v0.799h-3.892
			c0.018,0.468,0.156,0.833,0.416,1.096c0.259,0.263,0.622,0.394,1.09,0.394c0.363,0,0.707-0.037,1.031-0.113
			c0.324-0.075,0.662-0.195,1.015-0.361v1.274c-0.288,0.144-0.596,0.251-0.923,0.321C57.562,65.662,57.163,65.697,56.69,65.697z
			 M56.459,60.612c-0.349,0-0.622,0.111-0.82,0.332c-0.198,0.222-0.312,0.536-0.341,0.942h2.311
			c-0.007-0.406-0.113-0.721-0.318-0.942C57.085,60.724,56.808,60.612,56.459,60.612z M55.509,58.892v-0.146
			c0.619-0.72,1.042-1.261,1.269-1.625h1.847v0.113c-0.188,0.188-0.508,0.466-0.959,0.834c-0.451,0.369-0.805,0.644-1.061,0.824
			H55.509z"/>
		<path fill="#111628" d="M63.222,65.697c-0.971,0-1.73-0.268-2.277-0.804s-0.82-1.296-0.82-2.278c0-1.011,0.253-1.793,0.758-2.345
			c0.506-0.553,1.205-0.829,2.098-0.829c0.854,0,1.517,0.243,1.992,0.729c0.475,0.486,0.712,1.157,0.712,2.014v0.799h-3.892
			c0.018,0.468,0.156,0.833,0.416,1.096c0.259,0.263,0.622,0.394,1.09,0.394c0.363,0,0.707-0.037,1.031-0.113
			c0.324-0.075,0.662-0.195,1.015-0.361v1.274c-0.288,0.144-0.596,0.251-0.923,0.321C64.093,65.662,63.694,65.697,63.222,65.697z
			 M62.99,60.612c-0.349,0-0.622,0.111-0.82,0.332c-0.198,0.222-0.312,0.536-0.341,0.942h2.311
			c-0.007-0.406-0.113-0.721-0.318-0.942C63.616,60.724,63.339,60.612,62.99,60.612z"/>
		<path fill="#111628" d="M72.593,65.59h-1.646v-3.524c0-0.436-0.077-0.763-0.232-0.98c-0.154-0.218-0.4-0.326-0.738-0.326
			c-0.461,0-0.794,0.153-1,0.461c-0.205,0.309-0.307,0.818-0.307,1.531v2.839h-1.646v-6.035h1.258l0.221,0.772h0.092
			c0.184-0.292,0.437-0.512,0.759-0.662c0.321-0.148,0.688-0.224,1.099-0.224c0.701,0,1.234,0.19,1.598,0.569
			c0.363,0.38,0.545,0.928,0.545,1.644V65.59z"/>
		<path fill="#111628" d="M79.858,65.59h-1.646v-3.524c0-0.436-0.078-0.763-0.232-0.98s-0.401-0.326-0.739-0.326
			c-0.461,0-0.794,0.153-0.999,0.461c-0.205,0.309-0.308,0.818-0.308,1.531v2.839h-1.646v-6.035h1.257l0.222,0.772h0.092
			c0.184-0.292,0.436-0.512,0.758-0.662c0.322-0.148,0.688-0.224,1.099-0.224c0.702,0,1.234,0.19,1.599,0.569
			c0.363,0.38,0.545,0.928,0.545,1.644V65.59z"/>
		<path fill="#111628" d="M84.284,65.697c-0.972,0-1.731-0.268-2.278-0.804s-0.82-1.296-0.82-2.278c0-1.011,0.253-1.793,0.759-2.345
			c0.506-0.553,1.204-0.829,2.097-0.829c0.853,0,1.517,0.243,1.991,0.729c0.476,0.486,0.713,1.157,0.713,2.014v0.799h-3.892
			c0.019,0.468,0.156,0.833,0.415,1.096c0.26,0.263,0.623,0.394,1.091,0.394c0.363,0,0.707-0.037,1.031-0.113
			c0.323-0.075,0.661-0.195,1.015-0.361v1.274c-0.288,0.144-0.596,0.251-0.924,0.321C85.155,65.662,84.755,65.697,84.284,65.697z
			 M84.052,60.612c-0.35,0-0.623,0.111-0.82,0.332c-0.198,0.222-0.312,0.536-0.34,0.942h2.311c-0.008-0.406-0.114-0.721-0.319-0.942
			C84.678,60.724,84.401,60.612,84.052,60.612z"/>
		<path fill="#111628" d="M54,103.362c-26.391,0-47.861-21.472-47.861-47.863C6.139,29.108,27.609,7.638,54,7.638
			s47.861,21.471,47.861,47.861C101.861,81.891,80.391,103.362,54,103.362z M54,14.638c-22.531,0-40.861,18.33-40.861,40.861
			c0,22.532,18.33,40.863,40.861,40.863s40.861-18.331,40.861-40.863C94.861,32.968,76.531,14.638,54,14.638z"/>
	</g>
</g>
<g id="Calque_2" display="none">
</g>
</svg>
