<?xml version="1.0" encoding="utf-8"?>
<!-- Generator: Adobe Illustrator 16.0.0, SVG Export Plug-In . SVG Version: 6.00 Build 0)  -->
<!DOCTYPE svg PUBLIC "-//W3C//DTD SVG 1.1//EN" "http://www.w3.org/Graphics/SVG/1.1/DTD/svg11.dtd">
<svg version="1.1" xmlns="http://www.w3.org/2000/svg" xmlns:xlink="http://www.w3.org/1999/xlink" x="0px" y="0px" width="125.5px"
	 height="106px" viewBox="0 0 125.5 106" enable-background="new 0 0 125.5 106" xml:space="preserve">
<g id="Calque_1">
	<g>
		<path fill="#111628" d="M31.573,83.178c-0.631,0-1.117,0.237-1.463,0.71s-0.519,1.133-0.519,1.979c0,1.76,0.66,2.639,1.981,2.639
			c0.554,0,1.225-0.138,2.013-0.415v1.403c-0.647,0.27-1.371,0.404-2.17,0.404c-1.147,0-2.026-0.348-2.634-1.044
			c-0.608-0.696-0.912-1.696-0.912-2.999c0-0.82,0.148-1.539,0.447-2.156s0.729-1.09,1.288-1.419s1.216-0.494,1.968-0.494
			c0.766,0,1.536,0.186,2.31,0.556l-0.54,1.36c-0.295-0.14-0.592-0.263-0.891-0.367S31.86,83.178,31.573,83.178z"/>
		<path fill="#111628" d="M40.619,86.762c0,0.982-0.259,1.751-0.777,2.305c-0.519,0.555-1.239,0.831-2.165,0.831
			c-0.578,0-1.09-0.126-1.532-0.38s-0.782-0.618-1.021-1.093c-0.237-0.476-0.355-1.029-0.355-1.663c0-0.985,0.257-1.752,0.771-2.3
			c0.515-0.547,1.238-0.82,2.17-0.82c0.579,0,1.09,0.127,1.533,0.378c0.442,0.252,0.782,0.614,1.02,1.085
			C40.501,85.576,40.619,86.129,40.619,86.762z M36.446,86.762c0,0.598,0.099,1.05,0.295,1.354c0.195,0.307,0.516,0.459,0.958,0.459
			c0.438,0,0.755-0.151,0.947-0.456c0.192-0.304,0.288-0.757,0.288-1.357c0-0.597-0.097-1.045-0.291-1.344s-0.513-0.448-0.955-0.448
			c-0.439,0-0.756,0.148-0.95,0.445S36.446,86.161,36.446,86.762z"/>
		<path fill="#111628" d="M47.55,89.79h-1.646v-3.524c0-0.436-0.077-0.763-0.232-0.979c-0.154-0.219-0.4-0.327-0.738-0.327
			c-0.461,0-0.794,0.153-1,0.462c-0.205,0.308-0.307,0.817-0.307,1.53v2.839h-1.646v-6.035h1.258l0.221,0.772h0.092
			c0.184-0.292,0.437-0.512,0.759-0.661c0.321-0.149,0.688-0.225,1.099-0.225c0.701,0,1.234,0.19,1.598,0.57
			c0.363,0.379,0.545,0.928,0.545,1.643V89.79z"/>
		<path fill="#111628" d="M53.455,87.998c0,0.619-0.215,1.091-0.646,1.414c-0.43,0.324-1.072,0.485-1.93,0.485
			c-0.438,0-0.813-0.029-1.122-0.089s-0.599-0.146-0.869-0.262v-1.36c0.306,0.145,0.65,0.265,1.034,0.362
			c0.383,0.097,0.721,0.146,1.012,0.146c0.598,0,0.896-0.173,0.896-0.519c0-0.129-0.04-0.234-0.119-0.315
			c-0.08-0.081-0.217-0.173-0.41-0.275c-0.194-0.103-0.453-0.223-0.777-0.359c-0.465-0.193-0.805-0.374-1.023-0.539
			c-0.217-0.166-0.375-0.355-0.475-0.569s-0.148-0.478-0.148-0.791c0-0.536,0.208-0.951,0.623-1.244
			c0.416-0.294,1.006-0.44,1.768-0.44c0.728,0,1.435,0.158,2.122,0.476l-0.497,1.188c-0.302-0.13-0.584-0.235-0.848-0.318
			c-0.262-0.083-0.53-0.124-0.804-0.124c-0.485,0-0.729,0.131-0.729,0.394c0,0.147,0.078,0.275,0.234,0.384
			c0.157,0.107,0.499,0.268,1.028,0.48c0.472,0.19,0.816,0.368,1.037,0.534c0.219,0.165,0.381,0.356,0.485,0.571
			C53.403,87.442,53.455,87.699,53.455,87.998z"/>
		<path fill="#111628" d="M59.015,89.79l-0.221-0.771h-0.087c-0.177,0.28-0.427,0.497-0.751,0.65
			c-0.323,0.152-0.692,0.229-1.105,0.229c-0.709,0-1.244-0.189-1.604-0.568c-0.359-0.38-0.54-0.926-0.54-1.639v-3.936h1.646v3.525
			c0,0.436,0.077,0.762,0.231,0.979c0.155,0.218,0.402,0.327,0.74,0.327c0.461,0,0.793-0.154,0.998-0.462s0.309-0.817,0.309-1.53
			v-2.84h1.646v6.035H59.015z"/>
		<path fill="#111628" d="M63.651,89.79h-1.646v-8.398h1.646V89.79z"/>
		<path fill="#111628" d="M67.921,88.587c0.288,0,0.633-0.063,1.037-0.189v1.226c-0.41,0.183-0.914,0.274-1.512,0.274
			c-0.658,0-1.139-0.166-1.438-0.499c-0.301-0.333-0.45-0.832-0.45-1.497v-2.91h-0.789v-0.696l0.907-0.55l0.476-1.274h1.052v1.284
			h1.689v1.236h-1.689v2.91c0,0.233,0.065,0.406,0.197,0.518S67.705,88.587,67.921,88.587z"/>
		<path fill="#111628" d="M74.009,89.79l-0.318-0.82h-0.043c-0.277,0.349-0.563,0.591-0.855,0.726
			c-0.293,0.136-0.676,0.202-1.146,0.202c-0.58,0-1.035-0.165-1.369-0.496c-0.332-0.331-0.498-0.803-0.498-1.414
			c0-0.641,0.223-1.113,0.672-1.417c0.447-0.304,1.123-0.473,2.026-0.505l1.048-0.032v-0.265c0-0.611-0.314-0.918-0.939-0.918
			c-0.482,0-1.049,0.146-1.701,0.438l-0.545-1.111c0.695-0.363,1.465-0.546,2.311-0.546c0.81,0,1.43,0.177,1.862,0.529
			c0.432,0.353,0.647,0.889,0.647,1.608v4.021H74.009z M73.524,86.994l-0.638,0.021c-0.479,0.015-0.835,0.101-1.069,0.259
			c-0.233,0.158-0.35,0.399-0.35,0.724c0,0.464,0.266,0.696,0.799,0.696c0.381,0,0.686-0.109,0.914-0.329s0.344-0.511,0.344-0.874
			V86.994z"/>
		<path fill="#111628" d="M79.396,88.587c0.288,0,0.634-0.063,1.036-0.189v1.226c-0.41,0.183-0.914,0.274-1.511,0.274
			c-0.659,0-1.138-0.166-1.438-0.499s-0.451-0.832-0.451-1.497v-2.91h-0.787v-0.696l0.906-0.55l0.475-1.274h1.053v1.284h1.689v1.236
			h-1.689v2.91c0,0.233,0.066,0.406,0.197,0.518S79.181,88.587,79.396,88.587z"/>
		<path fill="#111628" d="M81.583,82.195c0-0.536,0.299-0.804,0.896-0.804s0.896,0.268,0.896,0.804c0,0.256-0.074,0.454-0.224,0.597
			s-0.373,0.213-0.672,0.213C81.882,83.005,81.583,82.735,81.583,82.195z M83.299,89.79h-1.646v-6.035h1.646V89.79z"/>
		<path fill="#111628" d="M90.511,86.762c0,0.982-0.26,1.751-0.777,2.305c-0.519,0.555-1.24,0.831-2.165,0.831
			c-0.579,0-1.091-0.126-1.532-0.38c-0.443-0.254-0.783-0.618-1.021-1.093c-0.237-0.476-0.356-1.029-0.356-1.663
			c0-0.985,0.258-1.752,0.771-2.3c0.516-0.547,1.238-0.82,2.17-0.82c0.58,0,1.091,0.127,1.533,0.378
			c0.443,0.252,0.783,0.614,1.021,1.085C90.392,85.576,90.511,86.129,90.511,86.762z M86.338,86.762c0,0.598,0.099,1.05,0.294,1.354
			c0.196,0.307,0.516,0.459,0.959,0.459c0.438,0,0.754-0.151,0.947-0.456c0.191-0.304,0.288-0.757,0.288-1.357
			c0-0.597-0.097-1.045-0.292-1.344c-0.193-0.299-0.512-0.448-0.955-0.448c-0.439,0-0.756,0.148-0.949,0.445
			C86.435,85.712,86.338,86.161,86.338,86.762z"/>
		<path fill="#111628" d="M97.441,89.79h-1.646v-3.524c0-0.436-0.077-0.763-0.231-0.979c-0.155-0.219-0.402-0.327-0.74-0.327
			c-0.461,0-0.793,0.153-0.998,0.462c-0.205,0.308-0.309,0.817-0.309,1.53v2.839h-1.646v-6.035h1.257l0.223,0.772h0.092
			c0.183-0.292,0.436-0.512,0.758-0.661s0.688-0.225,1.098-0.225c0.702,0,1.234,0.19,1.599,0.57
			c0.363,0.379,0.545,0.928,0.545,1.643V89.79z"/>
		<path fill="#111628" d="M120.135,102.696H5.365L62.75,3.304L120.135,102.696z M17.49,95.696h90.52L62.75,17.304L17.49,95.696z"/>
	</g>
</g>
<g id="Calque_2" display="none">
</g>
</svg>
