<?xml version="1.0" encoding="utf-8"?>
<!-- Generator: Adobe Illustrator 16.0.0, SVG Export Plug-In . SVG Version: 6.00 Build 0)  -->
<!DOCTYPE svg PUBLIC "-//W3C//DTD SVG 1.1//EN" "http://www.w3.org/Graphics/SVG/1.1/DTD/svg11.dtd">
<svg version="1.1" xmlns="http://www.w3.org/2000/svg" xmlns:xlink="http://www.w3.org/1999/xlink" x="0px" y="0px" width="111.5px"
	 height="77px" viewBox="0 0 111.5 77" enable-background="new 0 0 111.5 77" xml:space="preserve">
<g id="Calque_1">
	<g>
		<polygon fill="#111628" points="47.701,2.22 43.49,7.786 46.457,8.156 39.221,66.271 40.213,66.395 47.449,8.279 50.418,8.649 		
			"/>
		<polygon fill="#111628" points="41.547,8.938 39.654,2.22 34.781,7.217 37.68,7.954 22.473,67.708 23.441,67.954 38.648,8.201 		
			"/>
		<polygon fill="#111628" points="32.65,9.121 31.607,2.22 26.152,6.573 28.936,7.664 8.15,60.69 9.082,61.056 29.867,8.029 		"/>
		<polygon fill="#111628" points="68.006,7.786 63.795,2.22 61.078,8.649 64.047,8.279 71.287,66.395 72.279,66.271 65.039,8.156 		
			"/>
		<polygon fill="#111628" points="76.711,7.221 71.842,2.22 69.945,8.937 72.844,8.201 86.014,60.142 86.982,59.896 73.813,7.956 		
			"/>
		<polygon fill="#111628" points="82.563,7.664 85.346,6.573 79.891,2.22 78.846,9.121 81.631,8.029 102.418,61.056 103.35,60.69 		
			"/>
		<polygon fill="#111628" points="55.432,2.22 52.051,8.326 55.041,8.272 56.238,74.78 57.238,74.763 56.041,8.254 59.029,8.2 		"/>
	</g>
</g>
<g id="Calque_2" display="none">
</g>
</svg>
