<?xml version="1.0" encoding="utf-8"?>
<!-- Generator: Adobe Illustrator 16.0.0, SVG Export Plug-In . SVG Version: 6.00 Build 0)  -->
<!DOCTYPE svg PUBLIC "-//W3C//DTD SVG 1.1//EN" "http://www.w3.org/Graphics/SVG/1.1/DTD/svg11.dtd">
<svg version="1.1" xmlns="http://www.w3.org/2000/svg" xmlns:xlink="http://www.w3.org/1999/xlink" x="0px" y="0px" width="43.5px"
	 height="38px" viewBox="0 0 43.5 38" enable-background="new 0 0 43.5 38" xml:space="preserve">
<g id="Calque_1">
	<g>
		<path fill="#B1B1B1" d="M34.5,6.625h-4V2.25c0-0.553-0.448-1-1-1h-22c-0.552,0-1,0.447-1,1v28.5c0,0.553,0.448,1,1,1h4v4.375
			c0,0.553,0.448,1,1,1h22c0.552,0,1-0.447,1-1v-28.5C35.5,7.072,35.052,6.625,34.5,6.625z M11.5,29.75h-3V3.25h20v3.375v1v1V29.75
			h-15h-1H11.5z M33.5,35.125h-20V31.75h16c0.552,0,1-0.447,1-1V8.625h3V35.125z"/>
		<path fill="#B1B1B1" d="M11.5,10.347c0.149,0.089,0.314,0.153,0.5,0.153h0.5h1H25c0.552,0,1-0.447,1-1
			c0-0.385-0.224-0.708-0.542-0.875C25.319,8.552,25.168,8.5,25,8.5H12.5H12c-0.186,0-0.351,0.064-0.5,0.153
			C11.207,8.827,11,9.134,11,9.5S11.207,10.173,11.5,10.347z"/>
		<path fill="#B1B1B1" d="M11.5,17.347c0.149,0.089,0.314,0.153,0.5,0.153h0.5h1H25c0.552,0,1-0.447,1-1s-0.448-1-1-1H13.5h-1H12
			c-0.186,0-0.351,0.064-0.5,0.153c-0.293,0.174-0.5,0.48-0.5,0.847S11.207,17.173,11.5,17.347z"/>
		<path fill="#B1B1B1" d="M25,24.5c0.552,0,1-0.447,1-1s-0.448-1-1-1H13.5h-1H12c-0.186,0-0.351,0.064-0.5,0.153
			c-0.293,0.174-0.5,0.48-0.5,0.847s0.207,0.673,0.5,0.847c0.149,0.089,0.314,0.153,0.5,0.153h0.5h1H25z"/>
	</g>
</g>
<g id="Calque_2" display="none">
</g>
</svg>
