<?xml version="1.0" encoding="utf-8"?>
<!-- Generator: Adobe Illustrator 16.0.0, SVG Export Plug-In . SVG Version: 6.00 Build 0)  -->
<!DOCTYPE svg PUBLIC "-//W3C//DTD SVG 1.1//EN" "http://www.w3.org/Graphics/SVG/1.1/DTD/svg11.dtd">
<svg version="1.1" id="Calque_1" xmlns="http://www.w3.org/2000/svg" xmlns:xlink="http://www.w3.org/1999/xlink" x="0px" y="0px"
	 width="43.5px" height="38px" viewBox="0 0 43.5 38" enable-background="new 0 0 43.5 38" xml:space="preserve">
<g id="Calque_1_1_">
	<g>
		<g>
			<path fill="#FFFFFF" d="M19.912,15.332l-2.087,1.178v-3.467c0.724-0.539,1.75-1.381,2.306-1.868h4.409v12.017h-4.628V15.332z"/>
		</g>
		<g>
			<path fill="#FFFFFF" d="M12.695,35.943c1.929-2.155,5.708-2.659,8.529-1.135C19.344,36.966,15.584,37.549,12.695,35.943z"/>
			<path fill="#FFFFFF" d="M31.55,32.539c1.021-2.637,4.918-4.613,7.62-3.861C38.167,31.324,34.602,33.133,31.55,32.539z"/>
			<path fill="#FFFFFF" d="M30.966,35.943c-2.862,1.531-6.429,1.086-8.546-1.057C24.771,33.25,29.063,33.784,30.966,35.943z"/>
			<path fill="#FFFFFF" d="M40.105,15.893c-2.252-2.083-2.869-5.598-1.483-8.421C40.857,8.926,41.658,13.469,40.105,15.893z"/>
			<path fill="#FFFFFF" d="M37.262,25.368c-0.432-2.823,1.787-6.206,4.69-7.157C42.363,21.023,40.053,24.553,37.262,25.368z"/>
			<path fill="#FFFFFF" d="M30.932,1.5c2.979,0.662,5.211,3.719,5.221,6.691C33.499,7.896,30.695,4.301,30.932,1.5z"/>
			<path fill="#FFFFFF" d="M30.48,31.251c-0.864-2.737,0.406-5.646,3.064-7.028C34.63,27.167,32.736,30.334,30.48,31.251z"/>
			<path fill="#FFFFFF" d="M28.245,28.662c-0.653,2.972-3.28,5.057-5.979,4.789C22.684,30.669,25.333,28.563,28.245,28.662z"/>
			<path fill="#FFFFFF" d="M31.723,10.017c2.9-0.17,5.705,1.983,6.111,4.648C35.18,15.017,32.328,12.874,31.723,10.017z"/>
			<path fill="#FFFFFF" d="M36.212,24.031c-2.31-1.84-2.997-4.868-1.698-7.472C36.76,17.649,37.667,21.643,36.212,24.031z"/>
			<path fill="#FFFFFF" d="M12.114,32.539c-1.021-2.637-4.92-4.613-7.622-3.861C5.496,31.324,9.062,33.133,12.114,32.539z"/>
			<path fill="#FFFFFF" d="M3.558,15.893c2.25-2.083,2.869-5.598,1.483-8.421C2.805,8.926,2.005,13.469,3.558,15.893z"/>
			<path fill="#FFFFFF" d="M6.402,25.368c0.431-2.823-1.788-6.206-4.691-7.157C1.298,21.023,3.609,24.553,6.402,25.368z"/>
			<path fill="#FFFFFF" d="M12.73,1.5C9.753,2.162,7.52,5.219,7.511,8.191C10.164,7.896,12.968,4.301,12.73,1.5z"/>
			<path fill="#FFFFFF" d="M13.183,31.251c0.863-2.737-0.407-5.646-3.066-7.028C9.033,27.167,10.927,30.334,13.183,31.251z"/>
			<path fill="#FFFFFF" d="M15.418,28.662c0.652,2.972,3.28,5.057,5.98,4.789C20.98,30.669,18.33,28.563,15.418,28.662z"/>
			<path fill="#FFFFFF" d="M11.94,10.017C9.039,9.847,6.235,12,5.828,14.665C8.483,15.017,11.335,12.874,11.94,10.017z"/>
			<path fill="#FFFFFF" d="M7.451,24.031c2.31-1.84,2.997-4.868,1.699-7.472C6.904,17.649,5.995,21.643,7.451,24.031z"/>
		</g>
	</g>
</g>
</svg>
