<?xml version="1.0" encoding="utf-8"?>
<!-- Generator: Adobe Illustrator 16.0.0, SVG Export Plug-In . SVG Version: 6.00 Build 0)  -->
<!DOCTYPE svg PUBLIC "-//W3C//DTD SVG 1.1//EN" "http://www.w3.org/Graphics/SVG/1.1/DTD/svg11.dtd">
<svg version="1.1" xmlns="http://www.w3.org/2000/svg" xmlns:xlink="http://www.w3.org/1999/xlink" x="0px" y="0px" width="43.5px"
	 height="38px" viewBox="0 0 43.5 38" enable-background="new 0 0 43.5 38" xml:space="preserve">
<g id="Calque_1">
	<g>
		<g>
			<path fill="#B1B1B1" d="M19.912,15.332l-2.087,1.178v-3.467c0.724-0.539,1.75-1.381,2.306-1.868h4.409v12.017h-4.628V15.332z"/>
		</g>
		<g>
			<path fill-rule="evenodd" clip-rule="evenodd" fill="#B1B1B1" d="M12.695,35.943c1.929-2.155,5.708-2.659,8.529-1.134
				C19.344,36.966,15.584,37.549,12.695,35.943z"/>
			<path fill-rule="evenodd" clip-rule="evenodd" fill="#B1B1B1" d="M31.55,32.539c1.02-2.637,4.918-4.613,7.62-3.862
				C38.167,31.324,34.601,33.133,31.55,32.539z"/>
			<path fill-rule="evenodd" clip-rule="evenodd" fill="#B1B1B1" d="M30.966,35.944c-2.862,1.53-6.429,1.086-8.546-1.057
				C24.772,33.25,29.062,33.784,30.966,35.944z"/>
			<path fill-rule="evenodd" clip-rule="evenodd" fill="#B1B1B1" d="M40.105,15.893c-2.251-2.083-2.869-5.598-1.483-8.421
				C40.858,8.926,41.658,13.469,40.105,15.893z"/>
			<path fill-rule="evenodd" clip-rule="evenodd" fill="#B1B1B1" d="M37.261,25.368c-0.431-2.823,1.788-6.206,4.691-7.157
				C42.364,21.024,40.053,24.553,37.261,25.368z"/>
			<path fill-rule="evenodd" clip-rule="evenodd" fill="#B1B1B1" d="M30.932,1.5c2.978,0.662,5.21,3.719,5.22,6.691
				C33.499,7.896,30.695,4.301,30.932,1.5z"/>
			<path fill-rule="evenodd" clip-rule="evenodd" fill="#B1B1B1" d="M30.48,31.251c-0.864-2.737,0.406-5.646,3.065-7.029
				C34.63,27.167,32.736,30.334,30.48,31.251z"/>
			<path fill-rule="evenodd" clip-rule="evenodd" fill="#B1B1B1" d="M28.245,28.662c-0.653,2.972-3.28,5.057-5.98,4.789
				C22.683,30.669,25.333,28.563,28.245,28.662z"/>
			<path fill-rule="evenodd" clip-rule="evenodd" fill="#B1B1B1" d="M31.722,10.017c2.901-0.17,5.706,1.983,6.112,4.648
				C35.179,15.017,32.328,12.874,31.722,10.017z"/>
			<path fill-rule="evenodd" clip-rule="evenodd" fill="#B1B1B1" d="M36.212,24.032c-2.31-1.841-2.997-4.869-1.699-7.473
				C36.76,17.649,37.667,21.643,36.212,24.032z"/>
			<path fill-rule="evenodd" clip-rule="evenodd" fill="#B1B1B1" d="M12.114,32.539c-1.021-2.637-4.92-4.613-7.622-3.862
				C5.496,31.324,9.062,33.133,12.114,32.539z"/>
			<path fill-rule="evenodd" clip-rule="evenodd" fill="#B1B1B1" d="M3.558,15.893c2.25-2.083,2.869-5.598,1.483-8.421
				C2.805,8.926,2.005,13.469,3.558,15.893z"/>
			<path fill-rule="evenodd" clip-rule="evenodd" fill="#B1B1B1" d="M6.402,25.368c0.431-2.823-1.788-6.206-4.691-7.157
				C1.298,21.024,3.609,24.553,6.402,25.368z"/>
			<path fill-rule="evenodd" clip-rule="evenodd" fill="#B1B1B1" d="M12.73,1.5C9.753,2.162,7.52,5.219,7.511,8.191
				C10.164,7.896,12.968,4.301,12.73,1.5z"/>
			<path fill-rule="evenodd" clip-rule="evenodd" fill="#B1B1B1" d="M13.183,31.251c0.863-2.737-0.407-5.646-3.066-7.029
				C9.033,27.167,10.927,30.334,13.183,31.251z"/>
			<path fill-rule="evenodd" clip-rule="evenodd" fill="#B1B1B1" d="M15.418,28.662c0.652,2.972,3.28,5.057,5.98,4.789
				C20.98,30.669,18.33,28.563,15.418,28.662z"/>
			<path fill-rule="evenodd" clip-rule="evenodd" fill="#B1B1B1" d="M11.94,10.017C9.039,9.847,6.235,12,5.828,14.665
				C8.483,15.017,11.335,12.874,11.94,10.017z"/>
			<path fill-rule="evenodd" clip-rule="evenodd" fill="#B1B1B1" d="M7.451,24.032c2.31-1.841,2.997-4.869,1.699-7.473
				C6.904,17.649,5.995,21.643,7.451,24.032z"/>
		</g>
	</g>
</g>
<g id="Calque_2" display="none">
</g>
</svg>
