<?xml version="1.0" encoding="utf-8"?>
<!-- Generator: Adobe Illustrator 16.0.0, SVG Export Plug-In . SVG Version: 6.00 Build 0)  -->
<!DOCTYPE svg PUBLIC "-//W3C//DTD SVG 1.1//EN" "http://www.w3.org/Graphics/SVG/1.1/DTD/svg11.dtd">
<svg version="1.1" id="Calque_1" xmlns="http://www.w3.org/2000/svg" xmlns:xlink="http://www.w3.org/1999/xlink" x="0px" y="0px"
	 width="43.5px" height="38px" viewBox="0 0 43.5 38" enable-background="new 0 0 43.5 38" xml:space="preserve">
<g id="Calque_1_1_">
	<path fill="#FFFFFF" d="M40.732,19.258c0-0.388-0.224-0.741-0.575-0.905l-4.985-2.337l4.985-2.337
		c0.352-0.164,0.575-0.518,0.575-0.905c0-0.387-0.224-0.741-0.575-0.905L22.541,3.61c-0.27-0.127-0.58-0.127-0.849,0L4.076,11.868
		C3.724,12.032,3.5,12.386,3.5,12.773c0,0.387,0.224,0.741,0.576,0.905l4.985,2.337l-4.985,2.337C3.724,18.517,3.5,18.87,3.5,19.258
		c0,0.389,0.224,0.741,0.576,0.905L9.061,22.5l-4.985,2.337C3.724,25.001,3.5,25.354,3.5,25.742c0,0.388,0.224,0.74,0.576,0.904
		l17.617,8.258C21.827,34.969,21.972,35,22.117,35c0.145,0,0.29-0.031,0.424-0.096l17.617-8.258
		c0.352-0.164,0.576-0.518,0.576-0.904s-0.225-0.741-0.576-0.905L35.172,22.5l4.985-2.337
		C40.509,19.999,40.732,19.646,40.732,19.258z M6.856,12.773L22.117,5.62l15.261,7.153l-4.562,2.138l-1.178,0.552l-1.178,0.553
		L25.9,18.153l-2.356,1.104l-1.427,0.669l-1.427-0.669l-2.356-1.104l-4.561-2.138l-1.178-0.553l-1.178-0.552L6.856,12.773z
		 M37.377,25.742l-15.261,7.152l-15.26-7.152l4.561-2.139l10.275,4.816c0.134,0.063,0.279,0.096,0.424,0.096
		c0.146,0,0.29-0.031,0.424-0.096l10.274-4.816L37.377,25.742z M32.816,21.396L30.46,22.5l-8.344,3.911L13.773,22.5l-2.356-1.104
		l-4.561-2.139l4.561-2.138l4.561,2.138l2.356,1.104l3.359,1.574c0.134,0.063,0.279,0.096,0.424,0.096
		c0.145,0,0.29-0.031,0.424-0.096l3.359-1.574l2.355-1.104l4.561-2.138l4.562,2.138L32.816,21.396z"/>
</g>
</svg>
