<?xml version="1.0" encoding="utf-8"?>
<!-- Generator: Adobe Illustrator 16.0.0, SVG Export Plug-In . SVG Version: 6.00 Build 0)  -->
<!DOCTYPE svg PUBLIC "-//W3C//DTD SVG 1.1//EN" "http://www.w3.org/Graphics/SVG/1.1/DTD/svg11.dtd">
<svg version="1.1" xmlns="http://www.w3.org/2000/svg" xmlns:xlink="http://www.w3.org/1999/xlink" x="0px" y="0px" width="238px"
	 height="126px" viewBox="0 0 238 126" enable-background="new 0 0 238 126" xml:space="preserve">
<g id="Calque_1">
	<g>
		<path fill="#111628" d="M89.146,65.585c0,1.306-0.323,2.311-0.971,3.012c-0.648,0.702-1.576,1.053-2.785,1.053
			s-2.138-0.351-2.785-1.053c-0.648-0.701-0.973-1.709-0.973-3.022s0.325-2.316,0.975-3.01c0.65-0.692,1.581-1.039,2.794-1.039
			c1.212,0,2.14,0.35,2.782,1.048S89.146,64.275,89.146,65.585z M83.387,65.585c0,0.882,0.167,1.546,0.502,1.991
			c0.335,0.447,0.835,0.67,1.501,0.67c1.335,0,2.002-0.887,2.002-2.661c0-1.777-0.664-2.667-1.991-2.667
			c-0.666,0-1.168,0.225-1.507,0.673C83.556,64.039,83.387,64.703,83.387,65.585z"/>
		<path fill="#111628" d="M94.021,63.394c0.223,0,0.408,0.017,0.556,0.049l-0.124,1.544c-0.133-0.036-0.295-0.055-0.486-0.055
			c-0.525,0-0.934,0.135-1.228,0.405c-0.293,0.27-0.44,0.647-0.44,1.134v3.07h-1.646v-6.034h1.247l0.242,1.015h0.082
			c0.187-0.338,0.439-0.61,0.758-0.817S93.646,63.394,94.021,63.394z"/>
		<path fill="#111628" d="M100.925,63.507v0.837l-0.945,0.242c0.173,0.271,0.26,0.572,0.26,0.907c0,0.647-0.227,1.152-0.678,1.515
			c-0.451,0.361-1.079,0.542-1.881,0.542l-0.297-0.017l-0.243-0.026c-0.169,0.129-0.254,0.273-0.254,0.432
			c0,0.237,0.302,0.356,0.907,0.356h1.025c0.662,0,1.166,0.142,1.514,0.426c0.348,0.285,0.521,0.702,0.521,1.253
			c0,0.705-0.295,1.252-0.883,1.641s-1.434,0.583-2.534,0.583c-0.843,0-1.485-0.146-1.93-0.439
			c-0.444-0.294-0.667-0.705-0.667-1.234c0-0.363,0.113-0.667,0.34-0.912c0.227-0.244,0.561-0.419,0.999-0.523
			c-0.169-0.072-0.317-0.189-0.442-0.354c-0.127-0.164-0.189-0.337-0.189-0.521c0-0.23,0.066-0.422,0.199-0.575
			c0.134-0.152,0.326-0.303,0.578-0.451c-0.316-0.137-0.567-0.355-0.753-0.658c-0.185-0.302-0.278-0.658-0.278-1.068
			c0-0.658,0.215-1.168,0.643-1.527c0.428-0.36,1.04-0.54,1.836-0.54c0.168,0,0.369,0.016,0.602,0.046s0.381,0.053,0.445,0.067
			H100.925z M96.267,70.395c0,0.227,0.108,0.404,0.326,0.534c0.217,0.13,0.522,0.194,0.914,0.194c0.591,0,1.053-0.081,1.388-0.243
			c0.335-0.161,0.502-0.383,0.502-0.663c0-0.228-0.099-0.384-0.297-0.471c-0.198-0.086-0.503-0.129-0.917-0.129h-0.854
			c-0.303,0-0.555,0.07-0.758,0.213S96.267,70.16,96.267,70.395z M96.865,65.482c0,0.327,0.075,0.587,0.224,0.777
			c0.149,0.19,0.377,0.286,0.684,0.286c0.309,0,0.535-0.096,0.68-0.286s0.216-0.45,0.216-0.777c0-0.727-0.299-1.09-0.896-1.09
			C97.167,64.393,96.865,64.756,96.865,65.482z"/>
		<path fill="#111628" d="M105.749,69.541l-0.318-0.82h-0.043c-0.277,0.35-0.563,0.592-0.855,0.727s-0.676,0.202-1.146,0.202
			c-0.58,0-1.035-0.165-1.369-0.497c-0.332-0.33-0.498-0.802-0.498-1.414c0-0.641,0.223-1.112,0.672-1.416
			c0.447-0.305,1.123-0.473,2.026-0.505l1.048-0.032v-0.265c0-0.612-0.314-0.918-0.939-0.918c-0.482,0-1.049,0.146-1.701,0.438
			l-0.545-1.112c0.695-0.363,1.465-0.545,2.311-0.545c0.81,0,1.43,0.176,1.862,0.529c0.432,0.353,0.647,0.889,0.647,1.608v4.021
			H105.749z M105.265,66.745l-0.638,0.022c-0.479,0.014-0.835,0.101-1.069,0.259c-0.233,0.158-0.35,0.399-0.35,0.724
			c0,0.464,0.266,0.695,0.799,0.695c0.381,0,0.686-0.109,0.914-0.329s0.344-0.511,0.344-0.874V66.745z"/>
		<path fill="#111628" d="M114.165,69.541h-1.646v-3.524c0-0.435-0.078-0.762-0.232-0.979s-0.401-0.326-0.739-0.326
			c-0.461,0-0.794,0.153-0.999,0.461s-0.308,0.818-0.308,1.53v2.839h-1.646v-6.034h1.257l0.222,0.772h0.092
			c0.184-0.292,0.436-0.513,0.758-0.662c0.322-0.148,0.688-0.224,1.099-0.224c0.702,0,1.234,0.189,1.599,0.569
			c0.363,0.38,0.545,0.928,0.545,1.644V69.541z"/>
		<path fill="#111628" d="M115.79,61.947c0-0.537,0.299-0.805,0.896-0.805s0.896,0.268,0.896,0.805c0,0.255-0.074,0.454-0.224,0.596
			c-0.149,0.143-0.373,0.214-0.672,0.214C116.089,62.757,115.79,62.486,115.79,61.947z M117.506,69.541h-1.646v-6.034h1.646V69.541z
			"/>
		<path fill="#111628" d="M123.443,67.75c0,0.618-0.215,1.09-0.646,1.414c-0.43,0.323-1.072,0.485-1.93,0.485
			c-0.438,0-0.813-0.029-1.122-0.089s-0.599-0.146-0.869-0.262v-1.36c0.306,0.144,0.65,0.265,1.034,0.361
			c0.383,0.098,0.721,0.146,1.012,0.146c0.598,0,0.896-0.172,0.896-0.518c0-0.13-0.04-0.234-0.119-0.316
			c-0.08-0.08-0.217-0.172-0.41-0.275c-0.194-0.102-0.453-0.222-0.777-0.358c-0.465-0.194-0.805-0.374-1.023-0.54
			c-0.217-0.165-0.375-0.355-0.475-0.569s-0.148-0.478-0.148-0.79c0-0.537,0.208-0.951,0.623-1.244
			c0.416-0.294,1.006-0.44,1.768-0.44c0.728,0,1.435,0.158,2.122,0.475l-0.497,1.188c-0.302-0.129-0.584-0.235-0.848-0.318
			c-0.262-0.083-0.53-0.124-0.804-0.124c-0.485,0-0.729,0.132-0.729,0.395c0,0.147,0.078,0.275,0.234,0.383
			c0.157,0.107,0.499,0.268,1.028,0.48c0.472,0.19,0.816,0.369,1.037,0.534c0.219,0.166,0.381,0.356,0.485,0.572
			S123.443,67.451,123.443,67.75z"/>
		<path fill="#111628" d="M128.56,69.541l-0.318-0.82h-0.043c-0.277,0.35-0.563,0.592-0.855,0.727s-0.676,0.202-1.146,0.202
			c-0.58,0-1.035-0.165-1.369-0.497c-0.332-0.33-0.498-0.802-0.498-1.414c0-0.641,0.223-1.112,0.672-1.416
			c0.447-0.305,1.123-0.473,2.026-0.505l1.048-0.032v-0.265c0-0.612-0.314-0.918-0.939-0.918c-0.482,0-1.049,0.146-1.701,0.438
			l-0.545-1.112c0.695-0.363,1.465-0.545,2.311-0.545c0.81,0,1.43,0.176,1.862,0.529c0.432,0.353,0.647,0.889,0.647,1.608v4.021
			H128.56z M128.075,66.745l-0.638,0.022c-0.479,0.014-0.835,0.101-1.069,0.259c-0.233,0.158-0.35,0.399-0.35,0.724
			c0,0.464,0.266,0.695,0.799,0.695c0.381,0,0.686-0.109,0.914-0.329s0.344-0.511,0.344-0.874V66.745z"/>
		<path fill="#111628" d="M133.947,68.338c0.288,0,0.634-0.063,1.036-0.189v1.226c-0.41,0.184-0.914,0.275-1.511,0.275
			c-0.659,0-1.138-0.166-1.438-0.499s-0.451-0.832-0.451-1.498v-2.909h-0.787v-0.696l0.906-0.551l0.475-1.273h1.053v1.284h1.689
			v1.236h-1.689v2.909c0,0.234,0.066,0.406,0.197,0.518C133.558,68.282,133.731,68.338,133.947,68.338z"/>
		<path fill="#111628" d="M136.134,61.947c0-0.537,0.299-0.805,0.896-0.805s0.896,0.268,0.896,0.805
			c0,0.255-0.074,0.454-0.224,0.596c-0.149,0.143-0.373,0.214-0.672,0.214C136.433,62.757,136.134,62.486,136.134,61.947z
			 M137.85,69.541h-1.646v-6.034h1.646V69.541z"/>
		<path fill="#111628" d="M145.062,66.514c0,0.982-0.26,1.75-0.777,2.305c-0.519,0.554-1.24,0.831-2.165,0.831
			c-0.579,0-1.091-0.127-1.532-0.381c-0.443-0.253-0.783-0.618-1.021-1.093s-0.356-1.029-0.356-1.662c0-0.986,0.258-1.753,0.771-2.3
			c0.516-0.547,1.238-0.82,2.17-0.82c0.58,0,1.091,0.126,1.533,0.378c0.443,0.252,0.783,0.613,1.021,1.085
			S145.062,65.88,145.062,66.514z M140.889,66.514c0,0.598,0.099,1.049,0.294,1.354c0.196,0.306,0.516,0.459,0.959,0.459
			c0.438,0,0.754-0.152,0.947-0.456c0.191-0.305,0.288-0.757,0.288-1.357c0-0.598-0.097-1.046-0.292-1.344
			c-0.193-0.299-0.512-0.448-0.955-0.448c-0.439,0-0.756,0.148-0.949,0.445C140.985,65.464,140.889,65.912,140.889,66.514z"/>
		<path fill="#111628" d="M151.992,69.541h-1.646v-3.524c0-0.435-0.077-0.762-0.231-0.979c-0.155-0.218-0.402-0.326-0.74-0.326
			c-0.461,0-0.793,0.153-0.998,0.461s-0.309,0.818-0.309,1.53v2.839h-1.646v-6.034h1.257l0.223,0.772h0.092
			c0.183-0.292,0.436-0.513,0.758-0.662c0.322-0.148,0.688-0.224,1.098-0.224c0.702,0,1.234,0.189,1.599,0.569
			c0.363,0.38,0.545,0.928,0.545,1.644V69.541z"/>
		<path fill="#111628" d="M157.897,67.75c0,0.618-0.215,1.09-0.646,1.414c-0.43,0.323-1.073,0.485-1.93,0.485
			c-0.438,0-0.813-0.029-1.122-0.089c-0.311-0.06-0.6-0.146-0.869-0.262v-1.36c0.305,0.144,0.65,0.265,1.033,0.361
			c0.383,0.098,0.721,0.146,1.012,0.146c0.598,0,0.896-0.172,0.896-0.518c0-0.13-0.039-0.234-0.119-0.316
			c-0.079-0.08-0.216-0.172-0.41-0.275c-0.193-0.102-0.453-0.222-0.777-0.358c-0.464-0.194-0.805-0.374-1.022-0.54
			c-0.218-0.165-0.376-0.355-0.476-0.569c-0.099-0.214-0.148-0.478-0.148-0.79c0-0.537,0.209-0.951,0.624-1.244
			c0.415-0.294,1.005-0.44,1.768-0.44c0.728,0,1.435,0.158,2.122,0.475l-0.497,1.188c-0.302-0.129-0.585-0.235-0.848-0.318
			s-0.53-0.124-0.804-0.124c-0.486,0-0.729,0.132-0.729,0.395c0,0.147,0.078,0.275,0.234,0.383s0.499,0.268,1.027,0.48
			c0.473,0.19,0.817,0.369,1.037,0.534c0.219,0.166,0.381,0.356,0.486,0.572C157.845,67.193,157.897,67.451,157.897,67.75z"/>
		<circle fill="#111628" cx="181.375" cy="31.063" r="6.515"/>
		<circle fill="#111628" cx="169.508" cy="12.313" r="6.515"/>
		<circle fill="#111628" cx="194.402" cy="15.091" r="6.515"/>
		<circle fill="#111628" cx="214.241" cy="31.063" r="6.515"/>
		<path fill="#111628" d="M167.366,87.631c-3.596,0-6.512-2.916-6.512-6.514c0-3.597,2.916-6.513,6.512-6.513
			c3.6,0,6.516,2.916,6.516,6.513C173.882,84.715,170.966,87.631,167.366,87.631z"/>
		<path fill="#111628" d="M185.861,78.74c-3.598,0-6.516-2.912-6.516-6.51c0-3.599,2.918-6.515,6.516-6.515
			c3.596,0,6.514,2.916,6.514,6.515C192.375,75.828,189.457,78.74,185.861,78.74z"/>
		<circle fill="#111628" cx="224.943" cy="83.074" r="6.514"/>
		<circle fill="#111628" cx="211.916" cy="63.03" r="6.513"/>
		<path fill="#111628" d="M170.975,59.201c-3.596,0-6.512-2.916-6.512-6.514s2.916-6.515,6.512-6.515c3.6,0,6.516,2.917,6.516,6.515
			S174.574,59.201,170.975,59.201z"/>
		<circle fill="#111628" cx="142.785" cy="87.631" r="6.516"/>
		<circle fill="#111628" cx="136.268" cy="43.365" r="6.514"/>
		<circle fill="#111628" cx="179.347" cy="98.288" r="6.513"/>
		<circle fill="#111628" cx="119.656" cy="83.075" r="6.513"/>
		<circle fill="#111628" cx="118.701" cy="105.138" r="6.515"/>
		<path fill="#111628" d="M158.396,39.66c-3.6,0-6.518-2.918-6.518-6.515c0-3.599,2.918-6.515,6.518-6.515
			c3.597,0,6.514,2.916,6.514,6.515C164.91,36.742,161.993,39.66,158.396,39.66z"/>
		<path fill="#111628" d="M152.584,20.109c-3.6,0-6.516-2.921-6.516-6.516c0-3.6,2.916-6.515,6.516-6.515
			c3.598,0,6.514,2.915,6.514,6.515C159.098,17.188,156.182,20.109,152.584,20.109z"/>
		<circle fill="#111628" cx="85.08" cy="21.162" r="6.515"/>
		<circle fill="#111628" cx="121.223" cy="28.546" r="6.514"/>
		<circle fill="#111628" cx="136.937" cy="20.108" r="6.514"/>
		<circle fill="#111628" cx="69.299" cy="13.594" r="6.515"/>
		<circle fill="#111628" cx="87.441" cy="46.173" r="6.515"/>
		<circle fill="#111628" cx="104.395" cy="39.659" r="6.514"/>
		<circle fill="#111628" cx="104.141" cy="13.594" r="6.514"/>
		<path fill="#111628" d="M69.301,43.367c-3.6,0-6.517-2.919-6.517-6.517c0-3.597,2.917-6.515,6.517-6.515
			c3.596,0,6.513,2.918,6.513,6.515C75.813,40.448,72.896,43.367,69.301,43.367z"/>
		<circle fill="#111628" cx="91.596" cy="89.588" r="6.514"/>
		<path fill="#111628" d="M49.379,49.878c-3.598,0-6.517-2.916-6.517-6.513c0-3.598,2.919-6.514,6.517-6.514
			c3.596,0,6.512,2.916,6.512,6.514C55.891,46.962,52.975,49.878,49.379,49.878z"/>
		<path fill="#111628" d="M36.352,26.622c-3.599,0-6.518-2.917-6.518-6.513c0-3.6,2.919-6.514,6.518-6.514
			c3.596,0,6.512,2.914,6.512,6.514C42.863,23.705,39.947,26.622,36.352,26.622z"/>
		<circle fill="#111628" cx="42.864" cy="69.542" r="6.512"/>
		<path fill="#111628" d="M27.913,98.288c-3.598,0-6.517-2.916-6.517-6.513c0-3.598,2.919-6.514,6.517-6.514
			c3.596,0,6.512,2.916,6.512,6.514C34.425,95.372,31.509,98.288,27.913,98.288z"/>
		<circle fill="#111628" cx="13.059" cy="67.63" r="6.512"/>
		<circle fill="#111628" cx="27.913" cy="48.09" r="6.514"/>
		<circle fill="#111628" cx="198.891" cy="43.364" r="6.513"/>
		<circle fill="#111628" cx="62.785" cy="74.143" r="6.514"/>
		<path fill="#111628" d="M62.787,102.619c-3.6,0-6.517-2.916-6.517-6.514c0-3.596,2.917-6.512,6.517-6.512
			c3.596,0,6.512,2.916,6.512,6.512C69.299,99.703,66.383,102.619,62.787,102.619z"/>
		<circle fill="#111628" cx="93.955" cy="113.686" r="6.515"/>
		<circle fill="#111628" cx="149.965" cy="107.171" r="6.515"/>
	</g>
</g>
<g id="Calque_2" display="none">
</g>
</svg>
