<?xml version="1.0" encoding="utf-8"?>
<!-- Generator: Adobe Illustrator 16.0.0, SVG Export Plug-In . SVG Version: 6.00 Build 0)  -->
<!DOCTYPE svg PUBLIC "-//W3C//DTD SVG 1.1//EN" "http://www.w3.org/Graphics/SVG/1.1/DTD/svg11.dtd">
<svg version="1.1" xmlns="http://www.w3.org/2000/svg" xmlns:xlink="http://www.w3.org/1999/xlink" x="0px" y="0px" width="71.5px"
	 height="73px" viewBox="0 0 71.5 73" enable-background="new 0 0 71.5 73" xml:space="preserve">
<g id="Calque_1">
	<g>
		<g>
			<path fill-rule="evenodd" clip-rule="evenodd" fill="#111628" d="M50.004,34.036c1.546,2.449,1.71,4.951,0.521,7.583
				c-0.502,1.114-0.741,2.326,0.624,3.229c-2.638,1.906-5.502,2.359-9.011,1.818c0.547,1.232,0.931,2.096,1.348,3.036
				c-2.37,0.988-4.803,2.015-7.252,3.003c-0.275,0.111-0.674,0.105-0.95-0.005c-2.448-0.987-4.883-2.011-7.287-3.009
				c0.442-0.91,0.847-1.74,1.447-2.979c-3.461,0.449-6.393,0.095-9.09-1.889c1.379-0.785,1.09-1.897,0.734-3.043
				c-1.233-3.973-1.229-3.975,0.098-7.199c-0.299-1.512-0.703-2.557-0.653-3.578c0.061-1.224,0.451-2.445,0.803-3.637
				c0.921-3.131,2.023-6.213,2.826-9.373c1.462-5.752,5.242-8.61,11.173-8.861c5.508-0.233,9.25,1.966,11.435,6.949
				c0.249,0.568,0.385,1.186,0.565,1.784c0.928,3.079,1.865,6.153,2.773,9.238c0.351,1.196,0.813,2.403,0.891,3.624
				c0.069,1.105-0.316,2.241-0.503,3.362C50.333,34.073,50.169,34.056,50.004,34.036z"/>
			<path fill-rule="evenodd" clip-rule="evenodd" fill="#111628" d="M26.904,49.874c1.263,4.678,2.495,9.249,3.775,13.988
				c-7.932,0-15.727,0-23.734,0c-0.055-2.904,0.854-5.387,3.054-7.251c0.965-0.817,2.173-1.431,3.366-1.882
				c3.946-1.491,7.938-2.867,11.913-4.285C25.764,50.271,26.251,50.102,26.904,49.874z"/>
			<path fill-rule="evenodd" clip-rule="evenodd" fill="#111628" d="M64.52,63.884c-7.802,0-15.616,0-23.658,0
				c1.252-4.677,2.475-9.248,3.755-14.027c0.656,0.24,1.215,0.449,1.777,0.649c3.887,1.388,7.754,2.831,11.662,4.146
				C62.185,56.04,64.911,59.79,64.52,63.884z"/>
			<path fill-rule="evenodd" clip-rule="evenodd" fill="#111628" d="M38.035,63.884c-1.613,0-3.024,0-4.526,0
				c0.122-0.579,0.174-1.06,0.327-1.508c0.638-1.873,1.25-3.723-0.245-5.522c-0.152-0.185-0.049-0.754,0.129-1.009
				c0.598-0.855,1.282-1.647,2.049-2.608c0.766,0.968,1.488,1.791,2.092,2.692c0.177,0.27,0.17,0.881-0.021,1.136
				c-1.136,1.522-1.045,3.058-0.313,4.702C37.793,62.363,37.845,63.058,38.035,63.884z"/>
		</g>
	</g>
</g>
<g id="Calque_2" display="none">
</g>
</svg>
